<?xml version="1.0" standalone="no"?>
<!DOCTYPE svg PUBLIC "-//W3C//DTD SVG 1.1//EN" "http://www.w3.org/Graphics/SVG/1.1/DTD/svg11.dtd" >
<svg xmlns="http://www.w3.org/2000/svg">
<metadata>
Created by FontForge 20120731 at Mon Aug 15 15:29:49 2016
 By admin
</metadata>
<defs>
<font id="iconfont" horiz-adv-x="1024" >
  <font-face 
    font-family="iconfont"
    font-weight="500"
    font-stretch="normal"
    units-per-em="1024"
    panose-1="2 0 6 3 0 0 0 0 0 0"
    ascent="896"
    descent="-128"
    x-height="792"
    bbox="0 -175 1155 896"
    underline-thickness="50"
    underline-position="-100"
    unicode-range="U+0078-E633"
  />
<missing-glyph horiz-adv-x="374" 
d="M34 0v682h272v-682h-272zM68 34h204v614h-204v-614z" />
    <glyph glyph-name=".notdef" horiz-adv-x="374" 
d="M34 0v682h272v-682h-272zM68 34h204v614h-204v-614z" />
    <glyph glyph-name=".null" horiz-adv-x="0" 
 />
    <glyph glyph-name="nonmarkingreturn" horiz-adv-x="341" 
 />
    <glyph glyph-name="x" unicode="x" horiz-adv-x="1001" 
d="M281 543q-27 -1 -53 -1h-83q-18 0 -36.5 -6t-32.5 -18.5t-23 -32t-9 -45.5v-76h912v41q0 16 -0.5 30t-0.5 18q0 13 -5 29t-17 29.5t-31.5 22.5t-49.5 9h-133v-97h-438v97zM955 310v-52q0 -23 0.5 -52t0.5 -58t-10.5 -47.5t-26 -30t-33 -16t-31.5 -4.5q-14 -1 -29.5 -0.5
t-29.5 0.5h-32l-45 128h-439l-44 -128h-29h-34q-20 0 -45 1q-25 0 -41 9.5t-25.5 23t-13.5 29.5t-4 30v167h911zM163 247q-12 0 -21 -8.5t-9 -21.5t9 -21.5t21 -8.5q13 0 22 8.5t9 21.5t-9 21.5t-22 8.5zM316 123q-8 -26 -14 -48q-5 -19 -10.5 -37t-7.5 -25t-3 -15t1 -14.5
t9.5 -10.5t21.5 -4h37h67h81h80h64h36q23 0 34 12t2 38q-5 13 -9.5 30.5t-9.5 34.5q-5 19 -11 39h-368zM336 498v228q0 11 2.5 23t10 21.5t20.5 15.5t34 6h188q31 0 51.5 -14.5t20.5 -52.5v-227h-327z" />
    <glyph glyph-name="uniE600" unicode="&#xe600;" 
d="M960 339q0 12 -8.5 21t-21.5 9h-46q-14 0 -27 9.5t-17 23.5l-24 58q-7 12 -4.5 28t12.5 26l33 33q8 9 8 21.5t-8 20.5l-56 55q-8 9 -20.5 9t-21.5 -9l-33 -32q-10 -10 -26 -12.5t-28 4.5l-58 24q-14 4 -23.5 17t-9.5 27v46q0 13 -9 21.5t-21 8.5h-78q-12 0 -21 -8.5
t-9 -21.5v-46q0 -14 -9.5 -27t-23.5 -17l-58 -24q-12 -7 -28 -4.5t-26 12.5l-33 32q-9 9 -21.5 9t-20.5 -9l-55 -55q-9 -8 -9 -20.5t9 -21.5l32 -33q10 -10 12.5 -26t-4.5 -28l-24 -58q-4 -14 -17 -23.5t-27 -9.5h-46q-13 0 -21.5 -9t-8.5 -21v-78q0 -12 8.5 -21t21.5 -9h46
q14 0 27 -9.5t17 -23.5l24 -58q7 -12 4.5 -28t-12.5 -26l-33 -33q-8 -9 -8 -21.5t8 -20.5l56 -56q8 -8 20.5 -8t21.5 8l33 33q10 10 26 12.5t28 -4.5l58 -24q14 -4 23.5 -17t9.5 -27v-46q0 -13 9 -21.5t21 -8.5h78q12 0 21 8.5t9 21.5v46q0 14 9.5 27t23.5 17l58 24
q12 7 28 4.5t27 -12.5l32 -32q9 -9 21.5 -9t20.5 8l56 56q8 8 8 20.5t-8 21.5l-33 33q-10 10 -12.5 26t4.5 28l24 58q4 14 17 23.5t27 9.5h46q13 0 21.5 9t8.5 21v78zM685 300q0 -71 -50.5 -121.5t-122 -50.5t-122 50.5t-50.5 121.5t50.5 121.5t122 50.5t122 -50.5
t50.5 -121.5z" />
    <glyph glyph-name="uniE601" unicode="&#xe601;" horiz-adv-x="1000" 
d="M941 327l-440 341l-439 -341v139l439 341l440 -341v-139zM831 340v-330h-220v220h-219v-220h-220v330l329 247z" />
    <glyph glyph-name="uniE602" unicode="&#xe602;" 
d="M512.5 339q-102.5 0 -175 72.5t-72.5 175t72.5 175t175 72.5t175 -72.5t72.5 -175t-72.5 -175t-175 -72.5zM512.5 781q-80.5 0 -137.5 -57t-57 -137.5t57 -137.5t137.5 -57t137.5 57t57 137.5t-57 137.5t-137.5 57zM936 -66q-11 0 -19 7.5t-8 18.5q0 114 -63 205
t-163 121q-10 3 -15.5 13t-2.5 20.5t13 15.5t20 2q117 -35 190.5 -140t73.5 -237q0 -11 -7.5 -18.5t-18.5 -7.5zM88 -66q-10 0 -18 7.5t-8 18.5q0 131 73 235.5t188 140.5q10 3 20 -2t13 -15.5t-2 -20t-16 -13.5q-98 -30 -160.5 -121t-62.5 -204q0 -11 -8 -18.5t-19 -7.5z
" />
    <glyph glyph-name="uniE603" unicode="&#xe603;" 
d="M924 465q-34 77 -93.5 137t-137.5 94q45 35 101 35q69 0 117 -48.5t48 -116.5q0 -56 -35 -101zM917 283q0 -80 -29 -151.5t-82 -127.5l57 -56q12 -13 12 -30t-12 -29t-29.5 -12t-29.5 12l-61 61q-105 -73 -232 -73t-232 73l-60 -61q-13 -12 -30.5 -12t-29.5 12t-12 29.5
t12 29.5l57 57q-53 55 -82 127t-29 151q0 110 54.5 203.5t148 148t203.5 54.5t203.5 -54.5t148 -148t54.5 -203.5zM510.5 605q-87.5 0 -161.5 -43t-117 -117.5t-43 -162t43 -161.5t117 -117t161.5 -43t162 43t117.5 117t43 161.5t-43 162t-117.5 117.5t-162 43zM679 241
h-168q-17 0 -29.5 12t-12.5 30v224q0 17 12.5 29.5t29.5 12.5t29.5 -12.5t12.5 -29.5v-182h126q17 0 29.5 -12.5t12.5 -30t-12.5 -29.5t-29.5 -12zM99 459q-36 46 -36 104q0 69 49 118.5t119 49.5q58 0 104 -36q-80 -34 -141 -95.5t-95 -140.5z" />
    <glyph glyph-name="uniE604" unicode="&#xe604;" 
d="M510 829q-91 0 -174 -35t-143 -95t-95.5 -143t-35.5 -174t35.5 -174t95.5 -143t143 -95.5t174 -35.5t174 35.5t143 95.5t95.5 143t35.5 174t-35.5 174t-95.5 143t-143 95t-174 35zM510 18q-99 0 -182.5 48.5t-132.5 132.5t-49 183t49 182.5t132.5 132.5t182.5 49v-364
l258 -258q-51 -50 -117.5 -78t-140.5 -28zM510 18z" />
    <glyph glyph-name="uniE605" unicode="&#xe605;" 
d="M512 749q-91 0 -174 -35.5t-143.5 -95.5t-96 -143t-35.5 -174t35.5 -174t96 -143t143.5 -95.5t174 -35.5t174 35.5t143 95.5t95.5 143t35.5 174t-35.5 174t-95.5 143t-143 95.5t-174 35.5zM724 281q0 -1 -1 -3q-1 0 -1 -1q-3 -6 -6 -9h-1q-1 -2 -2 -3l-262 -252
q-14 -14 -34 -14q-22 0 -36 15q-15 15 -14.5 35.5t15.5 35.5l226 217l-227 215q-15 14 -15.5 34.5t13.5 35.5q15 16 36 16q20 0 35 -14l264 -250q12 -11 15 -27t-5 -31z" />
    <glyph glyph-name="uniE606" unicode="&#xe606;" 
d="M512 194q-121 0 -224.5 25t-163.5 67.5t-60 92.5q0 25 21 53q15 -20 39 -38q-4 -13 -4 -15q0 -35 52.5 -65.5t143 -48.5t197 -18t197 18t143 48.5t52.5 65.5q0 2 -5 15q25 18 40 38q21 -28 21 -53q0 -50 -60 -92.5t-163.5 -67.5t-225.5 -25zM512 353q-121 0 -224.5 25
t-163.5 67.5t-60 92.5t60 92.5t163.5 67.5t225 25t225 -25t163.5 -67.5t60 -92.5t-60 -92.5t-163.5 -67.5t-225.5 -25zM512 670q-106 0 -196.5 -17.5t-143 -48t-52.5 -66.5t52.5 -66.5t143 -48t197 -17.5t197 17.5t143 48t52.5 66.5t-52.5 66.5t-143 48t-197.5 17.5z
M124 235q-4 -12 -4 -14q0 -36 52.5 -66.5t143 -48t197 -17.5t197 17.5t143 48t52.5 66.5q0 1 -5 14q25 18 40 39q21 -29 21 -53q0 -50 -60 -93t-163.5 -67.5t-225 -24.5t-225 24.5t-163.5 67.5t-60 93q0 24 21 53q15 -21 39 -39z" />
    <glyph glyph-name="uniE607" unicode="&#xe607;" horiz-adv-x="1025" 
d="M512 -66q-91 0 -174.5 35.5t-144 96t-96 144t-35.5 174.5t35.5 174.5t96 144t144 96t174.5 35.5t174.5 -35.5t144 -96t96 -144t35.5 -174.5t-35.5 -174.5t-96 -144t-144 -96t-174.5 -35.5zM512 770q-105 0 -193.5 -52t-140.5 -140.5t-52 -193.5t52 -193.5t140.5 -140.5
t193.5 -52t193.5 52t140.5 140.5t52 193.5t-52 193.5t-140.5 140.5t-193.5 52zM673 434q-18 -37 -48 -66q-15 -14 -33 -21t-22 -11q-13 -16 -20 -39q-3 -11 -3 -17h-70q0 3 -0.5 7t0 8t2.5 12q7 27 22 47q4 6 21.5 14t31.5 22q39 39 50 56.5t11 52.5t-25.5 62t-73.5 27
q-55 0 -81.5 -30t-26.5 -93h-69q2 61 11 84q14 33 38 54q27 24 60 35t70 11q71 0 124 -45q43 -38 43 -112q0 -34 -12 -58zM547 142h-93v92h93v-92z" />
    <glyph glyph-name="uniE608" unicode="&#xe608;" 
d="M921 -175h-822h-36v73h36h822h36v-73h-36zM698 -45v476q0 9 3 16t6 10t13 10.5t14 11.5l116 99l68 -37l39 91v-668v-9h-259zM640 373v-418h-15h-216h-29v29v14v375q10 -5 25 -13.5t49 -21.5t52 -12t51.5 13t58.5 23zM845 640l-14 -10q-10 -8 -15 -13q-74 -63 -263 -226
q-34 -30 -70 -6q-23 14 -85 51t-94 59q-25 17 -44 15t-40 -23q-11 -11 -24 -22t-30 -24t-25 -20q-35 -27 -58 -3q-22 24 12 52q21 18 64.5 53.5t64.5 53.5q29 24 65 3q27 -17 224 -136q50 43 144 125t137 119q-24 24 -39 40q96 23 198 51q-3 -10 -52 -186q-32 24 -56 47z
M262 454q38 -11 49.5 -32t11.5 -63v-404h-260v330q0 7 24 26q29 24 87.5 72t87.5 71zM262 454z" />
    <glyph glyph-name="uniE609" unicode="&#xe609;" 
d="M512 -56q182 0 311 129t129 311t-129 311t-311 129t-311 -129t-129 -311t129 -311t311 -129zM512 -3q-105 0 -194 52t-141 141t-52 194t52 194t141 141t194 52t194 -52t141 -141t52 -194t-52 -194t-141 -141t-194 -52zM488 653l-257 -447q-6 -9 -3 -19.5t12.5 -16.5
t20.5 -3t16 13l257 447q6 9 3 20t-12.5 16.5t-20.5 2.5t-16 -13zM492 623l264 -444q5 -9 16 -11.5t20.5 3t12 16t-3.5 20.5l-263 443q-6 10 -16.5 12.5t-20 -3t-12.5 -16.5t3 -20zM319 280h392q11 0 19 8t8 19t-8 18.5t-19 7.5h-392q-11 0 -18.5 -7.5t-7.5 -18.5t7.5 -19
t18.5 -8z" />
    <glyph glyph-name="uniE60A" unicode="&#xe60a;" 
d="M856 752h-443q-41 0 -69.5 -29t-28.5 -70v-74h-148q-41 0 -69.5 -28.5t-28.5 -69.5v-517q0 -41 28.5 -69.5t69.5 -28.5h517q41 0 69.5 28.5t28.5 69.5v148h74q41 0 70 28.5t29 69.5v443q0 41 -29 70t-70 29zM905 210q0 -20 -14 -34.5t-35 -14.5h-74v256l-49 -49v-404
q0 -20 -14.5 -34.5t-34.5 -14.5h-517q-20 0 -34.5 14.5t-14.5 34.5v517q0 20 14.5 34.5t34.5 14.5h404l49 49h-256v74q0 21 14.5 35t34.5 14h443q21 0 35 -14t14 -35v-443zM741 572l-401 -401l1 168q0 10 -7.5 17t-17.5 7t-17 -7t-7 -17l-2 -227q0 -10 7.5 -17.5t17.5 -7.5
q4 0 8 2h219q10 0 17 7t7 17t-7.5 17t-17.5 7l-165 1l400 399q7 7 7 17t-7.5 17.5t-17.5 7.5t-17 -7z" />
    <glyph glyph-name="uniE60B" unicode="&#xe60b;" 
d="M953.5 376.5q-8.5 8.5 -19.5 8.5h-197v127q0 11 -8.5 19.5t-19.5 8.5t-20 -8l-239 -240q-8 -8 -8 -19.5t8 -19.5l239 -239q9 -9 20 -9t19.5 8.5t8.5 19.5v127h197q11 0 19.5 8.5t8.5 19.5v169q0 11 -8.5 19.5zM906 216h-225v-115l-171 172l171 171v-115h225v-113z
M632 -10h-514v142q0 104 71.5 177.5t175.5 75.5h13q49 -1 94 -20q10 -5 21 -0.5t15.5 15t0.5 21.5t-15 15q-4 2 -13 5q51 30 81 81t30 111q0 92 -64.5 156.5t-156 64.5t-156.5 -64.5t-65 -156.5q0 -60 30.5 -111t80.5 -81q-63 -24 -111 -73q-88 -90 -88 -216v-149
q0 -20 14.5 -34.5t34.5 -14.5h521q11 0 19.5 8t8.5 20t-8.5 20t-19.5 8zM207 613q0 68 48 116.5t116.5 48.5t116.5 -48.5t48 -116.5t-48 -116.5t-116.5 -48.5t-116.5 48.5t-48 116.5z" />
    <glyph glyph-name="uniE60C" unicode="&#xe60c;" horiz-adv-x="1220" 
d="M636 830q-21 10 -39 -4q-29 -24 -114 -85q-110 -80 -140 -90h-161q-47 0 -75 -35q-24 -29 -24 -73v-317q0 -45 32.5 -76.5t77.5 -31.5h45q15 0 26 10.5t11 25.5t-11 25.5t-26 10.5h-45q-15 0 -25.5 10.5t-10.5 25.5v317q0 36 25 36h164q17 0 52.5 18.5t120.5 79.5
q28 20 64 47v-674q-26 22 -50 41q-78 61 -111.5 80t-51.5 19q-15 0 -26 -10.5t-11 -25.5q0 -14 10 -24.5t24 -11.5q28 -10 126 -89l18 -14q9 -7 17 -13.5t15.5 -13t14 -12t12.5 -10.5t10.5 -9t8 -7t5.5 -4l1 -2q11 -9 25 -9q7 0 15 3q21 10 21 33v827q0 23 -20 32zM920 769
q-14 7 -28.5 2.5t-21.5 -17.5t-2.5 -27.5t17.5 -21.5q91 -47 143.5 -133t52.5 -186.5t-52.5 -186.5t-143.5 -133q-13 -7 -17.5 -21.5t2.5 -27.5q11 -19 33 -19q9 0 17 4q109 57 172 160t63 223.5t-63.5 223.5t-171.5 160zM924 251q39 61 39 134t-39 135q-37 60 -101 91
q-13 7 -27.5 2.5t-21.5 -18t-2 -27.5t18 -21q46 -23 73 -66.5t27 -95t-27 -95t-73 -66.5q-13 -7 -18 -21t2 -27q10 -20 33 -20q8 0 16 4q64 31 101 91z" />
    <glyph glyph-name="uniE60D" unicode="&#xe60d;" 
d="M512 755l120 -242l272 -40l-197 -192l6 -38l40 -230l-241 127l-37 -20l-204 -107l40 230l6 38l-28 28l-169 164l272 40zM512 817q-19 0 -35 -10t-24 -26l-101 -210l-234 -35q-18 -2 -32 -13.5t-20 -28.5q-12 -36 15 -64l172 -170l-40 -236q-7 -39 26 -61q17 -12 38 -12
q17 0 31 8l204 109l204 -109q14 -8 31 -8q21 0 38 12q33 22 26 61l-40 236l172 170q27 28 15 64q-6 17 -20 28.5t-32 13.5l-234 35l-101 210q-8 16 -24 26t-35 10v0zM512 817z" />
    <glyph glyph-name="uniE60E" unicode="&#xe60e;" 
d="M673 259q5 5 4 12t-7 12q-5 4 -12 3t-12 -6q-53 -59 -129 -59q-42 0 -71.5 13t-58.5 46q-5 5 -12 6t-12 -3q-6 -5 -7 -12t4 -12q35 -39 71 -56t86 -17q94 0 156 73zM387 436v60q0 12 -9 21t-21 9t-21 -9t-9 -21v-60q0 -12 8.5 -21t21.5 -9q12 0 21 8.5t9 21.5zM914 499
q-34 138 -144.5 227t-253 89t-253 -89t-144.5 -227q-36 -14 -59 -50.5t-23 -82.5q0 -53 30 -92.5t74 -46.5q0 -1 1 -1h67q-42 79 -42 170q0 98 47 180.5t127.5 131t175 48.5t175.5 -48.5t127.5 -131t46.5 -180.5q0 -99 -48 -181.5t-129 -130.5q-8 2 -14 2q-24 0 -41.5 -17.5
t-17.5 -42t17.5 -42.5t42 -18t42 18t17.5 42q0 6 -2 14q108 71 158 187q45 8 75 47t30 92q0 46 -23 82.5t-59 50.5zM706 436v60q0 12 -8.5 21t-21.5 9q-12 0 -21 -9t-9 -21v-60q0 -12 9 -21t21 -9q13 0 21.5 8.5t8.5 21.5zM706 436z" />
    <glyph glyph-name="uniE60F" unicode="&#xe60f;" 
d="M829 701q-64 65 -148 98.5t-169 33.5t-169 -33.5t-148.5 -98t-98 -148.5t-33.5 -169t33.5 -169t98.5 -148q86 -87 201.5 -117.5t231 0t202 117t117 202t0 231t-117.5 201.5zM225 97q-78 78 -105.5 182.5t0 209t105.5 182.5t182.5 105.5t209 0t182.5 -105.5t105.5 -182.5
t0 -209t-105.5 -182.5t-182.5 -105.5t-209 0t-182.5 105.5zM544 192v160h160q13 0 22.5 9.5t9.5 22.5q0 14 -9.5 23.5t-22.5 9.5h-160v159q0 14 -9.5 23.5t-22.5 9.5q-14 0 -23.5 -9.5t-9.5 -23.5v-159h-159q-13 0 -22.5 -9.5t-9.5 -23.5q0 -13 9.5 -22.5t22.5 -9.5h159
v-160q0 -13 9.5 -22.5t23.5 -9.5q13 0 22.5 9.5t9.5 22.5z" />
    <glyph glyph-name="uniE610" unicode="&#xe610;" 
d="M961 71q0 -28 -14 -54l-284 318l280 245q18 -27 18 -59v-450zM511 277l391 342q-26 14 -53 14h-675q-27 0 -53 -14zM620 298l-90 -79q-8 -7 -18.5 -7t-18.5 7l-90 79l-288 -322q28 -17 59 -17h675q31 0 59 17zM79 580q-17 -27 -17 -59v-450q0 -28 14 -54l284 318zM79 580
z" />
    <glyph glyph-name="uniE611" unicode="&#xe611;" 
d="M63 442v-469q0 -8 0.5 -15t2.5 -12l2 -10q2 -5 3.5 -9t3.5 -7t3.5 -5t2.5 -3.5t2 -2.5l1 -1l288 295zM648 203l289 -295q20 19 20 65v469zM510 109l-92 61l-290 -301q21 -12 45 -12h683q29 4 34 12q-16 17 -88 92.5t-136 142.5l-64 66zM950 503l-440 248l-441 -248
l440 -328z" />
    <glyph glyph-name="uniE612" unicode="&#xe612;" 
d="M854 814h-688q-43 0 -73.5 -30t-30.5 -73v-551q0 -43 30.5 -73t73.5 -30h96h130l94 -94q10 -10 24.5 -10t24.5 10l93 94h227q43 0 73 30t30 73v551q0 43 -30.5 73t-73.5 30zM889 160q0 -14 -10 -24t-25 -10h-240q-13 0 -25 -11l-79 -79l-80 79q-8 9 -19 10v1h-142h-7h-96
q-15 0 -25 10t-10 24v551q0 15 10 25t25 10h688q15 0 25 -10t10 -25v-551zM320 453zM268 452.5q0 21.5 15 37t37 15.5t37 -15.5t15 -37t-15 -36.5t-37 -15t-37 15t-15 36.5zM527 453zM475 452.5q0 21.5 15.5 37t37 15.5t36.5 -15.5t15 -37t-15 -36.5t-36.5 -15t-37 15
t-15.5 36.5zM733.5 505q-21.5 0 -36.5 -15.5t-15 -37t15 -36.5t37 -15q21 0 36.5 15t15.5 36.5t-15.5 37t-37 15.5z" />
    <glyph glyph-name="uniE613" unicode="&#xe613;" 
d="M605 729q-3 0 -6 1q-15 0 -26.5 -9t-14.5 -24q-4 -16 5.5 -30t25.5 -17q64 -13 117 -49t89 -91q74 -112 47 -244q-4 -16 5.5 -30t25.5 -17q3 -1 7 -1q12 -1 23 6q14 10 18 26q22 108 -12.5 210t-115 174.5t-188.5 94.5zM675 123q57 -37 96 -77q41 -43 41 -74
q-1 -31 -37 -64q-8 -8 -21 -18t-49 -24t-74 -14q-35 0 -71 11q-38 12 -76 35q-75 44 -135 103t-114 143q-44 66 -73 134t-39.5 121t-13.5 81.5t-3 48.5q0 40 13 75t29.5 56t38 39t32.5 24t19 10q28 12 50 12q11 0 21 -3q28 -8 43 -40q26 -57 43 -141q2 -12 2 -22t-1.5 -17
t-6 -13.5t-8.5 -11t-11.5 -9t-12 -7t-12.5 -6.5l-1 -1q-54 -22 -63 -26q-7 -3 -10.5 -10t-0.5 -14q33 -100 95 -196q61 -94 138 -165q5 -5 13 -5h1q9 1 14 7q17 23 34 38q37 36 69 36q8 0 16.5 -2.5t24.5 -13.5zM505 398q-16 4 -25 18t-6 30q3 15 14.5 24t26.5 8q3 0 7 -1
q70 -14 109.5 -74t24.5 -130q-3 -17 -17 -26q-11 -7 -24 -7q-3 1 -6 1q-17 4 -26 17.5t-6 30.5q8 37 -13 69.5t-59 39.5zM547 525q-16 3 -25 17t-6 30q3 15 14.5 24t26.5 8h7q117 -25 183 -125t42 -218q-3 -16 -17 -25q-11 -8 -24 -7q-3 0 -7 1q-16 3 -25 17t-6 30
q18 85 -30 157.5t-133 90.5z" />
    <glyph glyph-name="uniE614" unicode="&#xe614;" 
d="M816 0q0 -32 -20 -54t-48 -22h-473q-28 0 -48 22t-20 54v765q0 31 20 53.5t48 22.5h473q28 0 48 -22.5t20 -53.5v-765zM607 814h-191q-7 0 -13 -5.5t-6 -13.5t6 -13.5t13 -5.5h191q8 0 13.5 5.5t5.5 13.5t-5.5 13.5t-13.5 5.5zM759 709q0 15 -10.5 26.5t-24.5 11.5h-425
q-14 0 -24.5 -11.5t-10.5 -26.5v-305q0 -16 10.5 -27t24.5 -11h425q14 0 24.5 11t10.5 27v305zM579 291q0 16 -11.5 27t-26.5 11h-58q-15 0 -26.5 -11t-11.5 -27v-19q0 -16 11.5 -27t26.5 -11h58q15 0 26.5 11t11.5 27v19zM406 289q0 6 -5.5 10.5t-13.5 4.5h-95
q-8 0 -13.5 -4.5t-5.5 -10.5v-15q0 -7 5.5 -11.5t13.5 -4.5h95q8 0 13.5 4.5t5.5 11.5v15zM753 289q0 6 -5.5 10.5t-13.5 4.5h-95q-8 0 -13.5 -4.5t-5.5 -10.5v-15q0 -7 5.5 -11.5t13.5 -4.5h95q8 0 13.5 4.5t5.5 11.5v15zM405 188q0 6 -6 10.5t-13 4.5h-96q-8 0 -13.5 -4.5
t-5.5 -10.5v-16q0 -6 5.5 -10.5t13.5 -4.5h96q7 0 13 4.5t6 10.5v16zM752 188q0 6 -5.5 10.5t-13.5 4.5h-95q-8 0 -13.5 -4.5t-5.5 -10.5v-16q0 -6 5.5 -10.5t13.5 -4.5h95q8 0 13.5 4.5t5.5 10.5v16zM579 188q0 6 -6 10.5t-13 4.5h-96q-7 0 -13 -4.5t-6 -10.5v-16
q0 -6 6 -10.5t13 -4.5h96q7 0 13 4.5t6 10.5v16zM405 104q0 7 -5.5 11.5t-13.5 4.5h-95q-8 0 -13.5 -4.5t-5.5 -11.5v-15q0 -6 5.5 -10.5t13.5 -4.5h95q8 0 13.5 4.5t5.5 10.5v15zM752 104q0 7 -5.5 11.5t-13.5 4.5h-95q-8 0 -13.5 -4.5t-5.5 -11.5v-15q0 -6 5.5 -10.5
t13.5 -4.5h95q8 0 13.5 4.5t5.5 10.5v15zM579 104q0 7 -5.5 11.5t-13.5 4.5h-95q-8 0 -13.5 -4.5t-5.5 -11.5v-15q0 -6 5.5 -10.5t13.5 -4.5h95q8 0 13.5 4.5t5.5 10.5v15zM405 21q0 6 -5.5 10.5t-13.5 4.5h-95q-8 0 -13.5 -4.5t-5.5 -10.5v-15q0 -6 5.5 -10.5t13.5 -4.5h95
q8 0 13.5 4.5t5.5 10.5v15zM753 21q0 6 -5.5 10.5t-13.5 4.5h-96q-7 0 -13 -4.5t-6 -10.5v-15q0 -6 6 -10.5t13 -4.5h96q8 0 13.5 4.5t5.5 10.5v15zM579 21q0 6 -5.5 10.5t-13.5 4.5h-95q-8 0 -13.5 -4.5t-5.5 -10.5v-15q0 -6 5.5 -10.5t13.5 -4.5h95q8 0 13.5 4.5t5.5 10.5
v15z" />
    <glyph glyph-name="uniE615" unicode="&#xe615;" 
d="M279 -148l465 448l-465 447v-895zM279 -148z" />
    <glyph glyph-name="uniE616" unicode="&#xe616;" 
d="M512 836q-92 0 -175.5 -36t-144 -96.5t-96.5 -144t-36 -175.5t36 -175.5t96.5 -144t144 -96.5t175.5 -36t175.5 36t144 96.5t96.5 144t36 175.5t-36 175.5t-96.5 144t-144 96.5t-175.5 36zM512 -11q-107 0 -198 53t-144 144t-53 198t53 198t144 144t198 53t198 -53
t144 -144t53 -198t-53 -198t-144 -144t-198 -53zM427 158l283 226l-283 226v-452z" />
    <glyph glyph-name="uniE617" unicode="&#xe617;" 
d="M830 702q-63 64 -145.5 98t-172.5 34t-172 -34t-146 -98t-98 -146t-34 -172t34 -172t98 -146t146 -98t172 -34t172.5 34t145.5 98q87 86 117.5 202t0 232t-117.5 202v0zM789 107q-56 -55 -127.5 -84.5t-149.5 -29.5t-149.5 29.5t-127 85t-85 127t-29.5 149.5t29.5 149.5
t85 127t127 85t150 29.5t149.5 -29.5t127 -84.5q75 -75 101.5 -176t0 -202t-101.5 -176v0zM707 274l-156 90v245q0 16 -11 26.5t-26.5 10.5t-26.5 -10.5t-11 -26.5v-263q0 -15 29 -32q2 -3 16 -11l155 -94q14 -8 27 -4t21 18q7 13 1.5 28t-18.5 23v0zM707 274z" />
    <glyph glyph-name="uniE618" unicode="&#xe618;" 
d="M879 17h-53v76q0 88 -41.5 163t-112.5 118q71 44 112.5 119t41.5 162v96h53q14 0 24.5 11t10.5 26t-10.5 25.5t-24.5 10.5h-734q-14 0 -24 -10.5t-10 -25.5t10 -26t24 -11h57v-96q0 -87 41 -162t112 -119q-71 -43 -112 -118t-41 -163v-76h-57q-14 0 -24.5 -11t-10.5 -26
t10.5 -25.5t24.5 -10.5h734q14 0 24 10.5t10 25.5t-10 26t-24 11v0zM757 17h-486v76q0 87 51 155.5t131 90.5q7 1 13 5q0 1 1 1l3 3l1 1l1 1q0 1 1 1q0 1 1 2t2 3q0 1 0.5 1t0.5 1t1 1v1q5 11 2 23q-3 11 -11 19h-1v1h-1q-6 5 -13 6q-81 22 -132 90.5t-51 155.5v96h486v-96
q0 -87 -51.5 -155.5t-132.5 -90.5q-13 -3 -20 -14t-6 -25v-1v-1q0 -1 1 -1v-2v-1v-1q1 0 1 -1t1 -2v-1q2 -4 4 -6q0 -1 1 -2l1 -1v0q1 -1 1 -2q5 -5 12 -7v-1h1h1h1q0 -1 1 -1q81 -21 132.5 -90t51.5 -156v-76v0zM757 17z" />
    <glyph glyph-name="uniE619" unicode="&#xe619;" 
d="M949 -91q-10 -10 -24 -10t-24 10l-60 60q-38 -25 -84 -25q-65 0 -111 46t-46 111t46 111t111 46t111 -46t46 -111q0 -46 -25 -84l60 -60q10 -10 10 -24t-10 -24zM756.5 206q-43.5 0 -74 -31t-30.5 -74t30.5 -73.5t74.5 -30.5q30 0 56 16q19 13 31 32q17 26 17 56
q0 43 -30.5 74t-74 31zM594 298l6 -2l8 -2l6 -3q-17 -11 -43 -41q-2 0 -22.5 6.5t-30.5 8.5q-44 -12 -59 -12q-42 0 -83 16q-96 -12 -167.5 -65t-103.5 -133v-80q0 -11 7.5 -18t17.5 -7h439q22 -26 45 -41h-473q-31 0 -53.5 22t-22.5 53v89l2 5q29 77 94 130t152 83
q-39 32 -61.5 77.5t-22.5 97.5q0 95 67.5 162.5t162 67.5t162 -67.5t67.5 -162.5q0 -55 -25.5 -103.5t-68.5 -80.5zM458.5 669q-77.5 0 -132 -54.5t-54.5 -132t54.5 -132t132 -54.5t132 54.5t54.5 132t-54.5 132t-132 54.5z" />
    <glyph glyph-name="uniE61A" unicode="&#xe61a;" 
d="M62 384h112v-56h-112v56zM231 384h169v-56h-169v56zM456 384h112v-56h-112v56zM624 384h169v-56h-169v56zM850 384h112v-56h-112v56zM838 834l17 -394h-681l17 394h29l16 -338h563l17 338h22zM191 -66l-17 338h676l-17 -338h-29l-16 281h-557l-17 -281h-23z" />
    <glyph glyph-name="uniE61B" unicode="&#xe61b;" 
d="M600 659q80 0 153 -34q-44 94 -132.5 151.5t-196.5 57.5q-98 0 -181.5 -48.5t-132 -132t-48.5 -181.5q0 -108 57.5 -196.5t151.5 -132.5q-34 73 -34 153q0 99 48.5 182.5t132 132t182.5 48.5zM753 625q34 -73 34 -153q0 -99 -48.5 -182.5t-132 -132t-182.5 -48.5
q-80 0 -153 34q44 -94 132.5 -151.5t196.5 -57.5q98 0 181.5 48.5t132 132t48.5 181.5q0 108 -57.5 196.5t-151.5 132.5z" />
    <glyph glyph-name="uniE61C" unicode="&#xe61c;" 
d="M837 534h-106v159q0 53 -37.5 90.5t-90.5 37.5h-398q-54 0 -91.5 -37.5t-37.5 -90.5v-399q0 -53 37.5 -90.5t91.5 -37.5h163v-101q0 -47 33 -80.5t81 -33.5h355q47 0 80.5 33.5t33.5 80.5v355q0 47 -33.5 80.5t-80.5 33.5zM878 65q0 -17 -12 -29t-29 -12h-355
q-18 0 -30 12t-12 29v174h-235q-23 0 -39.5 16t-16.5 39v399q0 23 16.5 39.5t39.5 16.5h398q23 0 39.5 -16.5t16.5 -39.5v-231h178q17 0 29 -12.5t12 -29.5v-355zM585 669h-362v-358h289v-216h289v289h-216v285z" />
    <glyph glyph-name="uniE61D" unicode="&#xe61d;" 
d="M231 661h550v-67h-550v67zM231 524h207v-67h-207v67zM231 385h136v-66h-136v66zM785 284q0 72 -51 122.5t-122.5 50.5t-122.5 -50.5t-51 -122.5t51 -123t122 -51q54 0 98 30l162 -162l48 48l-163 162q29 44 29 96zM611 180q-43 0 -73.5 30.5t-30.5 73.5t30.5 73.5
t73.5 30.5t73.5 -30.5t30.5 -73.5t-30.5 -73.5t-73.5 -30.5zM829 801h-647q-39 0 -66.5 -27.5t-27.5 -66.5v-643q0 -39 27.5 -67t66.5 -28h248v70h-248q-10 0 -17.5 7t-7.5 18v643q0 10 7.5 17.5t17.5 7.5h647q10 0 17.5 -7.5t7.5 -17.5v-252h69v252q0 39 -27.5 66.5
t-66.5 27.5z" />
    <glyph glyph-name="uniE61E" unicode="&#xe61e;" 
d="M941 460q0 96 -47.5 177t-128.5 128.5t-177 47.5q-101 0 -185 -52.5t-129 -138.5q-86 -45 -138.5 -129t-52.5 -185q0 -96 47.5 -177t128.5 -128.5t177 -47.5q101 0 185 52.5t129 138.5q86 45 138.5 129t52.5 185zM648 97q-42 -42 -95 -65q-56 -23 -117 -23t-116 23
q-54 23 -95.5 64.5t-64.5 95.5q-23 55 -23 116t23 117q23 54 65 95q9 9 18 17q-6 -28 -8 -56v-4v-2v-1v-3v-1v-2v-2v-6q0 -85 37.5 -158.5t101.5 -123.5l4 -3q4 -2 5 -3q6 -4 11 -7q88 -58 194 -58h6h2h2h2h3h2h4h1q28 2 55 8q-10 -11 -17 -18zM781 231q6 27 8 55v1v4v2v1v3
v1v2v2v6q0 96 -47 177t-127 128q-2 1 -5 3l-6 3q-2 1 -11 6q-74 36 -157 36h-6h-2h-2h-1h-3h-1h-2h-4h-1q-28 -2 -55 -8q9 10 17 18q41 42 95 65q56 23 117 23t116 -23q54 -23 95.5 -64.5t63.5 -95.5q24 -55 24 -116t-24 -117q-22 -53 -64 -95q-8 -9 -18 -17v0zM781 231z
" />
    <glyph glyph-name="uniE61F" unicode="&#xe61f;" 
d="M944 180q-9 14 -28 17.5t-32 -5.5l-78 -36l-84 168q-14 27 -47.5 27t-42.5 -27l-84 -174l-72 36q-41 20 -60 -18q-16 -16 -6 -48l42 -150q9 -36 48 -36h354q18 0 33 11t15 25l48 162q10 32 -6 48zM854 -6h-348l-42 138l66 -30q6 -6 24 -6q28 0 48 30l78 162l78 -162
q9 -18 28.5 -25.5t37.5 1.5l66 30zM518 342q24 0 36 -6h6q10 0 20 7.5t10 16.5q0 18 -6 24q65 28 107.5 87t42.5 129q0 98 -69 166t-165 68q-95 0 -167.5 -70t-72.5 -164q0 -66 36 -122t96 -88q-146 -32 -241 -143.5t-95 -258.5q0 -14 8 -22t22 -8t22 8t8 22
q0 149 107.5 251.5t264.5 102.5h30zM320 600q0 72 51 123t123 51t123 -51t51 -123q0 -73 -48.5 -123.5t-119.5 -50.5q-73 0 -126.5 51.5t-53.5 122.5z" />
    <glyph glyph-name="uniE620" unicode="&#xe620;" 
d="M672 300q8 -11 21.5 -13.5t25 6t13.5 22t-6 24.5q-49 68 -117 107l-32 16q39 28 62 72t23 95q0 85 -61 146t-146.5 61t-146.5 -61t-61 -146q0 -51 23 -95t62 -72l-16 -8q-62 -31 -110 -87q-48 -55 -74.5 -124t-26.5 -139q0 -13 9.5 -23t23.5 -10t23.5 10t9.5 23
q0 76 36.5 148.5t103 120.5t144.5 48q61 0 118 -31.5t99 -89.5zM314 628.5q0 58.5 41 99.5t99.5 41t99.5 -41t41 -99.5t-41 -99.5t-99.5 -41t-99.5 41t-41 99.5zM934 10l-123 123l123 124q10 10 10 23.5t-9.5 23.5t-23.5 10t-24 -10l-123 -124l-124 124q-9 10 -23 10
t-23.5 -10t-9.5 -23.5t9 -23.5l124 -124l-124 -123q-9 -10 -9 -23.5t9.5 -23.5t23.5 -10t23 10l124 123l123 -123q10 -10 24 -10t23.5 10t9.5 23.5t-10 23.5z" />
    <glyph glyph-name="uniE621" unicode="&#xe621;" 
d="M217 2q-11 0 -19.5 8t-8.5 20v67q0 103 56.5 186.5t151.5 121.5l8 4l-7 6q-36 28 -55.5 68.5t-19.5 85.5q0 82 57.5 139.5t138 57.5t138 -57.5t57.5 -139.5q0 -45 -20 -85.5t-55 -68.5l-8 -6l9 -4q94 -38 150.5 -121.5t56.5 -186.5v-67q0 -12 -8 -20t-20 -8h-602z
M518 366q-110 0 -188 -78.5t-78 -189.5v-39h532v39q0 111 -78 189.5t-188 78.5zM518.5 709q-57.5 0 -98 -41t-40.5 -98.5t40.5 -98.5t98 -41t98 41t40.5 98.5t-40.5 98.5t-98 41zM888 108q0 23 -6 49h51v32q0 71 -47.5 127t-122.5 74l-7 1q-22 7 -22 27q0 19 21 26
q31 13 49.5 39.5t18.5 57.5q0 33 -28 61t-66 39q-11 32 -34 59l-2 4q73 0 125 -48t52 -115q0 -62 -46 -109l-6 -6l7 -3q72 -34 113.5 -97t41.5 -137v-53q0 -11 -9.5 -19.5t-22.5 -8.5h-60zM86 108q-13 0 -22.5 8.5t-9.5 19.5v53q0 74 42 137t113 97l7 3l-5 6q-46 47 -46 109
q0 67 51.5 115t125.5 48q-2 -2 -3 -4q-22 -27 -34 -59q-36 -11 -62 -38.5t-26 -61.5q0 -31 18.5 -57.5t49.5 -39.5q22 -7 22 -26q0 -20 -23 -27l-7 -1q-75 -18 -122.5 -74t-47.5 -127v-32h45q-5 -27 -6 -49h-60z" />
    <glyph glyph-name="uniE622" unicode="&#xe622;" 
d="M935 484q17 11 21 21t4 28v150q0 30 -22 52t-53 22h-746q-31 0 -53 -22t-22 -52v-150q0 -19 4.5 -30t20.5 -19q31 -15 53 -40t22 -60q0 -75 -73 -99q-27 -17 -27 -50v-150q0 -30 22 -52t53 -22h746q31 0 53 22t22 52v150q0 19 -5 28.5t-20 20.5q-41 22 -58 43.5t-17 56
t16.5 56t58.5 44.5zM910 244v-134q0 -20 -14.5 -34.5t-35.5 -14.5h-696q-21 0 -35.5 14.5t-14.5 34.5v134q44 16 71.5 54t27.5 86t-27.5 86t-71.5 54v134q0 20 14.5 34.5t35.5 14.5h696q21 0 35.5 -14.5t14.5 -34.5v-134q-44 -16 -71.5 -54t-27.5 -86t27.5 -86t71.5 -54z
M649 434h-94l102 109q8 9 0 18l-16 17q-8 9 -16 0l-113 -121l-113 121q-8 9 -16 0l-16 -17q-8 -9 0 -17l102 -110h-94q-5 0 -8.5 -4t-3.5 -9v-25q0 -5 3.5 -8.5t8.5 -3.5h112v-50h-112q-5 0 -8.5 -3.5t-3.5 -8.5v-25q0 -5 3.5 -9t8.5 -4h112v-87q0 -5 3.5 -8.5t9.5 -3.5h24
q6 0 9.5 3.5t3.5 8.5v87h112q5 0 8.5 4t3.5 9v25q0 5 -3.5 8.5t-8.5 3.5h-112v50h112q5 0 8.5 3.5t3.5 8.5v25q0 5 -3.5 9t-8.5 4z" />
    <glyph glyph-name="uniE623" unicode="&#xe623;" horiz-adv-x="1153" 
d="M1021 773q-41 40 -100 40h-704q-59 0 -100 -40h-1q-41 -41 -41 -99v-407q0 -58 42 -99q41 -40 100 -40h325l269 -181q6 -4 14 -3t13 7t5 13v164h78q59 0 100 40q42 41 42 98v408q0 58 -42 99zM992 743q29 -29 29 -69v-407q0 -40 -29 -69t-71 -29h-88q-13 1 -22 -9h-1
q-9 -9 -9 -22v-134l-239 160q-8 6 -17 5h-328q-42 0 -71.5 29t-29.5 69v407q0 40 30 69q29 29 71 28h704q41 1 71 -28zM867 573q0 2 -2 3.5t-7 4.5q-5 2 -12 4q-8 2 -15 4q-9 1 -16 1q-16 0 -29.5 -4t-24 -12t-16.5 -21q-6 -12 -6 -28q0 -14 4.5 -24t10.5 -18q7 -7 16 -12
q8 -5 17 -10q7 -3 18 -8q8 -3 15 -8q7 -4 11 -9q4 -6 4 -13t-2.5 -12.5t-6.5 -8.5q-5 -4 -12 -6q-6 -2 -15 -2q-12 0 -22 3q-9 3 -17 6q-7 4 -11 6.5t-7 2.5q-2 0 -3 -1t-2 -3t-1 -6v-9q0 -8 1 -12q0 -4 2.5 -6.5t7.5 -5.5t13 -6q7 -2 18 -4q9 -2 21 -2q18 0 32 5
q16 4 27 13t17.5 22.5t6.5 30.5q0 14 -4 24t-11 17q-6 8 -15 13q-8 5 -18 10q-6 2 -18 7q-9 5 -15 8q-7 5 -11 10t-4 13q0 5 2 10q1 4 5 7q4 4 9.5 5.5t12.5 1.5q10 0 18 -2.5t14 -5t10.5 -5t5.5 -2.5q2 0 3 1t2 3q1 3 1 6v9v7q0 4 -1 5zM700 568q0 4 -1 7.5t-3.5 5.5
t-5.5 4q-3 1 -8 1h-31q-6 0 -11 -1.5t-8 -4.5q-4 -3 -7 -8q-2 -5 -5 -12l-50 -134h-1l-48 134q-2 7 -5 12t-7 8t-10 4.5t-14 1.5h-30q-8 0 -12.5 -4.5t-4.5 -13.5v-201q0 -1 1 -3q1 -1 3.5 -2t6.5 -1q5 -1 10.5 -1t10.5 1q4 0 7 1q2 1 3 2q1 2 1 3v183h1l63 -183q0 -1 2 -3
q1 -1 4 -2t7 -2h10h10q4 1 7 1q3 1 4 3q2 1 2 3l65 183h1v-183q0 -1 1 -2.5t3 -2.5q3 -1 7 -1q5 -1 10 -1q6 0 11 1q3 0 7 1q2 1 3 2.5t1 2.5v201zM307 530q0 5 2 10q1 4 5 7q4 4 9.5 5.5t12.5 1.5q10 0 18 -2.5t14 -5t10 -5t6 -2.5t3 1t2 3q1 3 1 6v9v7v5l-2 3q0 2 -2 3.5
t-7.5 4t-12.5 4.5l-14 4q-9 1 -16 1q-16 0 -29.5 -4t-24 -12t-16.5 -21q-6 -12 -6 -28q0 -14 4.5 -24t10.5 -18q7 -7 15 -12l18 -10q6 -3 17 -8q9 -3 16 -8q6 -4 11 -9q4 -6 4 -13t-3 -12q-2 -6 -7 -9q-5 -4 -11 -6t-15 -2q-12 0 -22 3t-17 6q-7 4 -11.5 6.5t-6.5 2.5t-3 -1
t-2 -3t-1.5 -5.5t-0.5 -9.5q0 -8 1 -12t3.5 -6.5t7.5 -5.5t13 -6q7 -2 17 -4t22 -2q17 0 32 5q16 4 27 13t17.5 22.5t6.5 30.5q0 14 -4 24t-11 17q-6 8 -15 13q-8 5 -18 10q-6 2 -18 7q-9 5 -15 8q-7 5 -11 10t-4 13v0z" />
    <glyph glyph-name="uniE624" unicode="&#xe624;" 
d="M826 41h-631q-43 0 -74 31t-31 74v473q0 44 31 75t74 31h631q44 0 74.5 -31t30.5 -75v-473q0 -43 -30.5 -74t-74.5 -31zM222 672l289 -251l289 251h-578zM879 619q0 23 -17 39l-351 -301l-352 301q-16 -16 -16 -39v-473q0 -21 15.5 -36.5t36.5 -15.5h631q22 0 37.5 15.5
t15.5 36.5v473z" />
    <glyph glyph-name="uniE625" unicode="&#xe625;" 
d="M512 896q-139 0 -257 -68.5t-186.5 -186.5t-68.5 -257t68.5 -257t186.5 -186.5t257 -68.5t257 68.5t186.5 186.5t68.5 257t-68.5 257t-186.5 186.5t-257 68.5zM855 555l-383 -444q-12 -12 -29.5 -12t-30.5 12l-249 188q-12 12 -12 30t12.5 30.5t30 12.5t30.5 -13
l218 -157l352 414q13 12 30.5 12t30 -12.5t12.5 -30t-12 -30.5z" />
    <glyph glyph-name="uniE626" unicode="&#xe626;" 
d="M716 69h-514q-36 0 -61 25t-25 61v459q0 36 25 61t61 25h699q-18 26 -47 41.5t-63 15.5h-594q-56 0 -95.5 -39.5t-39.5 -95.5v-486q0 -55 39 -90t96 -35h594q37 0 67.5 15.5t48.5 42.5h-191zM712 633q-103 0 -176 -73t-73 -176t73 -176t176 -73t176.5 73t73.5 176
t-73.5 176t-176.5 73zM712.5 168q-89.5 0 -153 63.5t-63.5 152.5t63.5 152.5t153 63.5t152.5 -63.5t63 -152.5t-63 -152.5t-152.5 -63.5zM705 377h-101v-28h130v213h-29v-185zM262 490h61v-355h-61v355zM160 282h61v-147h-61v147zM365 354h61v-219h-61v219z" />
    <glyph glyph-name="uniE627" unicode="&#xe627;" 
d="M918 510h-182q-18 0 -30 12.5t-12 30t12 29.5t30 12h73q-51 72 -129 113t-168 41q-99 0 -183 -48.5t-132.5 -132.5t-48.5 -183t48.5 -182.5t132.5 -132.5t183 -49t182.5 49t132.5 132.5t49 182.5q0 18 12 30t29.5 12t30 -12t12.5 -30q0 -91 -35.5 -174t-95.5 -143
t-143 -95.5t-174 -35.5t-174 35.5t-143 95.5t-95.5 143t-35.5 174t35.5 174t95.5 143t143 95.5t174 35.5q110 0 206 -50t158 -137v75q0 18 12 30t29.5 12t30 -12t12.5 -30v-168q0 -17 -12.5 -29.5t-29.5 -12.5z" />
    <glyph glyph-name="uniE628" unicode="&#xe628;" 
d="M512 823q-89 0 -170.5 -34.5t-140.5 -93.5t-93.5 -140.5t-34.5 -170.5t34.5 -170.5t93.5 -140.5t140.5 -93.5t170.5 -34.5t170.5 34.5t140.5 93.5t93.5 140.5t34.5 170.5t-34.5 170.5t-93.5 140.5t-140.5 93.5t-170.5 34.5zM739 237q16 -17 16 -40t-16 -40
q-17 -16 -40 -16t-40 16l-147 147l-147 -147q-17 -16 -40 -16t-40 16q-16 17 -16 40t16 40l147 147l-147 147q-16 17 -16 40t16 40q17 16 40 16t40 -16l147 -147l147 147q17 16 40 16t40 -16q16 -17 16 -40t-16 -40l-147 -147z" />
    <glyph glyph-name="uniE629" unicode="&#xe629;" 
d="M868 337l-653 -378q-28 -16 -56 -0.5t-28 47.5v755q0 32 28 48.5t55 0.5l654 -377q28 -15 28 -47.5t-28 -48.5z" />
    <glyph glyph-name="uniE62A" unicode="&#xe62a;" 
d="M652 399l-204 191q-18 9 -36 -1q-17 -10 -17 -30v-372q0 -19 17 -30q9 -5 19 -5q9 0 16 4l205 179q20 19 20 32.5t-20 31.5zM512 826q-90 0 -171.5 -35t-141 -94.5t-94.5 -141t-35 -171.5t35 -171.5t94.5 -141t141 -94.5t171.5 -35t171.5 35t141 94.5t94.5 141t35 171.5
t-35 171.5t-94.5 141t-141 94.5t-171.5 35zM512 -3q-105 0 -194 52t-141 141t-52 194t52 194t141 141t194 52t194 -52t141 -141t52 -194t-52 -194t-141 -141t-194 -52z" />
    <glyph glyph-name="uniE62B" unicode="&#xe62b;" 
d="M679 50q0 -23 -16 -39.5t-40 -16.5h-445q-23 0 -39.5 16.5t-16.5 39.5v445q0 23 16.5 39.5t39.5 16.5h56v56h-56q-46 0 -79 -33t-33 -79v-445q0 -46 33 -79t79 -33h445q47 0 79.5 33t32.5 79v55h-56v-55zM846 830h-445q-47 0 -79.5 -33t-32.5 -79v-445q0 -46 32.5 -79
t79.5 -33h445q46 0 79 33t33 79v445q0 46 -33 79t-79 33zM902 273q0 -23 -16.5 -39.5t-39.5 -16.5h-445q-23 0 -39.5 16.5t-16.5 39.5v445q0 23 16.5 39.5t39.5 16.5h445q23 0 39.5 -16.5t16.5 -39.5v-445z" />
    <glyph glyph-name="uniE62C" unicode="&#xe62c;" 
d="M852 790q-45 41 -110 41h-463q-64 0 -109 -41q-46 -43 -46 -106v-599q0 -64 46 -106q45 -42 109 -42h463q65 0 110 42q46 42 46 106v599q0 63 -46 106zM847 85q0 -39 -31.5 -68t-73.5 -29h-463q-42 0 -74.5 29.5t-32.5 67.5v599q0 38 32.5 67.5t74.5 29.5h463
q42 0 73.5 -29.5t31.5 -67.5v-599zM646 240v1q10 0 17 6.5t7 16.5t-7 17t-17 7h-109l106 126q8 6 8.5 16t-6 17.5t-16.5 8t-17 -6.5l-101 -117l-103 123q-7 6 -17 5.5t-16.5 -8t-6 -17t7.5 -16.5l113 -130v-1h-113q-10 0 -17 -7t-7 -17t7 -16.5t17 -6.5v-1h113v-48h-113
q-10 0 -17 -7t-7 -17t7 -17t17 -7h113v-56q0 -9 7 -16t16.5 -7t16.5 7t7 16h1v56h109q10 0 17 7t7 17t-7 17t-17 7h-109v48h109zM646 240zM767 706q-40 -66 -108.5 -105.5t-148.5 -39.5t-148.5 39.5t-109.5 105.5l-12 19l-21 -8l-23 -11q26 -51 66 -91q49 -48 111 -75
q66 -27 137 -27t136 27q63 27 112 75q40 40 65 91l-21 12l-21 10z" />
    <glyph glyph-name="uniE62D" unicode="&#xe62d;" 
d="M640 3h-413q-41 0 -70 29t-29 70v568q0 41 29 70t70 29h570q41 0 69.5 -29t28.5 -70v-414h64v431q0 60 -42.5 102.5t-102.5 42.5h-605q-60 0 -102.5 -42.5t-42.5 -102.5v-605q0 -60 42.5 -102.5t102.5 -42.5h431v66zM959 -25l-248 249q57 70 57 160q0 106 -75 181
t-181 75t-181 -75t-75 -181t75 -181t181 -75q90 0 160 57l249 -248zM511.5 192q-79.5 0 -135.5 56.5t-56 136t56 135.5t135.5 56t136 -56t56.5 -135.5t-56.5 -136t-136 -56.5z" />
    <glyph glyph-name="uniE62E" unicode="&#xe62e;" 
d="M569 383q43 32 67.5 80.5t24.5 103.5q0 96 -67 163.5t-161.5 67.5t-161 -67.5t-66.5 -163.5q0 -54 24 -101.5t65 -80.5q-88 -39 -143.5 -121t-58.5 -182q0 -16 11.5 -27t27 -11t26.5 11t11 27q8 102 80.5 176.5t173.5 79.5h21q63 -3 117 -33t90 -80h86q-53 106 -167 158z
M436 415h-8q-61 2 -104 46.5t-43 106.5q0 63 44 108t107 45t107.5 -45t44.5 -108q0 -62 -43 -106.5t-105 -46.5zM677 715q53 -14 93.5 -55.5t40.5 -91.5q0 -39 -23 -76.5t-56 -58.5q-15 -6 -24.5 -19.5t-9.5 -30.5v-4q0 -21 14.5 -36.5t35.5 -16.5h1q68 -32 119 -101h95
q-52 103 -160 154v3q40 33 62.5 81.5t22.5 103.5q0 91 -61 156.5t-149 72.5h-3q-16 -1 -27.5 -12.5t-11.5 -27.5q0 -17 12 -29t29 -12zM908 81h-73v73q0 15 -10.5 25.5t-26 10.5t-26 -10.5t-10.5 -25.5v-73h-73q-15 0 -25.5 -10.5t-10.5 -25.5t10.5 -26t25.5 -11h73v-73
q0 -15 10.5 -25.5t26 -10.5t26 10.5t10.5 25.5v73h73q15 0 25.5 11t10.5 26t-10.5 25.5t-25.5 10.5z" />
    <glyph glyph-name="uniE62F" unicode="&#xe62f;" 
d="M885 624q-6 10 -17.5 12t-21 -4t-12 -17t4.5 -21q61 -96 61 -210q0 -78 -29.5 -148.5t-84.5 -125.5t-125.5 -84.5t-148.5 -29.5t-148.5 29.5t-125.5 84.5t-84.5 125.5t-29.5 148.5q0 115 62 210q6 10 3.5 21t-12 17.5t-20.5 4t-18 -11.5q-70 -110 -70 -241q0 -90 34 -173
q34 -79 95.5 -140.5t140.5 -95.5q83 -34 173 -34t173 34q79 34 140.5 95.5t95.5 140.5q34 83 34 173q0 131 -70 240zM829 684q-1 10 -8 18v0l-1 1q-62 60 -141.5 92t-166.5 32t-166.5 -32t-141.5 -92l-3 -3q-2 -2 -4.5 -7.5t-2.5 -10.5q1 -4 2 -7.5t2.5 -5.5t2.5 -3.5
t2 -1.5l1 -1q62 -60 141.5 -92.5t166.5 -32.5t166 32.5t142 92.5q9 8 9 21zM543 338h-49l-75 131q-5 7 -13.5 9.5t-16 -2t-10 -13t1.5 -16.5l64 -109h-53q-9 0 -15 -6.5t-6 -15.5t6 -15.5t15 -6.5h108v-64h-108q-9 0 -15 -6.5t-6 -15.5t6 -15t15 -6h108v-87q0 -9 6.5 -15
t15.5 -6t15 6t6 15v87h108q9 0 15.5 6t6.5 15t-6.5 15.5t-15.5 6.5h-108v64h108q9 0 15.5 6.5t6.5 15.5t-6.5 15.5t-15.5 6.5h-58l63 109q5 8 2.5 16.5t-10 13t-16.5 2t-13 -9.5zM203 702zM760 683q-108 -89 -248 -89t-248 89q108 89 248 89t248 -89z" />
    <glyph glyph-name="uniE630" unicode="&#xe630;" 
d="M896 744h-769q-27 0 -45 -18.5t-18 -44.5t18 -44.5t45 -18.5h769q26 0 44.5 18.5t18.5 44.5t-18.5 44.5t-44.5 18.5zM558 553q-3 2 -5 4q0 1 -1 1l-1 1q-2 2 -2.5 2t-2.5 1l-3 2q-1 0 -3 1.5t-2.5 1.5t-3 1t-3.5 1l-3 1h-2.5t-3.5 1h-1h-2q-3 1 -6 1v0h-1q-26 0 -45 -19
l-318 -318q-19 -19 -19 -45t18.5 -44.5t44.5 -18.5t45 19l212 213v-440q0 -26 18.5 -44.5t44.5 -18.5t44.5 18.5t18.5 44.5v438l211 -211q18 -19 44 -19t44.5 18.5t18.5 44.5t-18 45z" />
    <glyph glyph-name="uniE631" unicode="&#xe631;" 
d="M877 493l-320 320q-18 19 -45 19t-45 -19l-320 -320q-19 -18 -19 -45t18.5 -45.5t45.5 -18.5t45 19l211 210v-613q0 -26 19 -45t45 -19t45 19t19 45v613l211 -210q18 -19 45 -19t45.5 18.5t18.5 45.5t-19 45z" />
    <glyph glyph-name="uniE632" unicode="&#xe632;" 
d="M511.5 844q-93.5 0 -179 -36.5t-147 -98.5t-98 -147t-36.5 -179t36.5 -179t98 -146.5t147 -98t179 -36.5t179 36.5t147 98t98 146.5t36.5 179t-36.5 179t-98 147t-147 98.5t-179 36.5zM837 326h-267l1 -269q0 -17 -12 -29.5t-29 -12.5h-33q-18 0 -30 12t-12 30l-1 269
h-268q-18 0 -30.5 13t-12.5 30v30q0 17 12.5 30t30.5 13h267l-1 269q0 17 12.5 29.5t29.5 12.5h33q17 0 29 -12t12 -29l1 -270h268q18 0 31 -13t13 -30v-30q0 -17 -13 -30t-31 -13z" />
    <glyph glyph-name="uniE633" unicode="&#xe633;" 
d="M511.5 844q-93.5 0 -179 -36.5t-147 -98.5t-98 -147t-36.5 -179t36.5 -179t98 -146.5t147 -98t179 -36.5t179 36.5t147 98t98 146.5t36.5 179t-36.5 179t-98 147t-147 98.5t-179 36.5zM837 326h-651q-18 0 -30.5 13t-12.5 30v30q0 17 12.5 30t30.5 13h651q18 0 31 -13
t13 -30v-30q0 -17 -13 -30t-31 -13z" />
  </font>
</defs>
</svg>
